<svg width="1080" height="1080" viewBox="0 0 1080 1080" fill="none" xmlns="http://www.w3.org/2000/svg">
<path fill-rule="evenodd" clip-rule="evenodd" d="M613.851 238.605C594.488 251.673 566.258 270.707 551.119 280.904C535.98 291.101 487.299 323.924 442.938 353.841C398.578 383.76 352.227 414.971 339.94 423.198C327.65 431.426 315.509 440.218 312.958 442.734C307.649 447.971 307.191 449.02 272.816 534.346C250.074 590.8 248.326 596.08 248.818 606.829C248.966 610.082 269.347 641.253 325.145 723.573C339.096 744.155 371.335 791.975 397.195 830.443C414.622 856.367 419.165 861.377 427.286 863.619C431.214 864.703 454.622 865.01 512.712 864.736L592.727 864.36L598.337 861.369C601.423 859.723 609.2 854.784 615.621 850.393C622.041 846.001 643.425 831.55 663.141 818.279C706.538 789.068 792.825 730.886 824.452 709.508C837.127 700.941 866.22 681.381 889.105 666.042C911.989 650.701 931.722 637.005 932.953 635.604C937.436 630.509 935.962 627.332 914.061 594.891C902.437 577.674 891.411 562.25 889.556 560.614C887.094 558.442 885.306 557.861 882.93 558.457C880.031 559.184 863.458 570.14 778.363 627.58C753.123 644.618 714.607 670.598 672.423 699.039C657.461 709.127 631.967 726.319 615.772 737.247C599.577 748.173 584.978 757.822 583.329 758.689C578.202 761.384 574.13 758.47 565.947 746.245C561.84 740.11 548.432 720.204 536.149 702.008C523.868 683.812 514.002 668.782 514.225 668.608C514.449 668.434 535.517 654.236 561.044 637.058C606.774 606.282 683.698 554.453 768.475 497.298C792.273 481.254 813.342 466.854 815.295 465.297C822.138 459.842 821.151 457.405 798.257 423.194C786.807 406.083 776.029 390.787 774.309 389.203C772.587 387.618 769.872 386.323 768.274 386.323C766.59 386.323 744.423 400.48 715.535 420.005C666.85 452.911 609.095 491.862 545.998 534.347C528.747 545.963 502.822 563.439 488.387 573.181C468.359 586.699 461.787 590.542 460.643 589.4C455.815 584.582 401.33 501.774 401.33 499.253C401.33 497.613 402.709 495.002 404.394 493.452C406.08 491.902 431.429 474.507 460.726 454.797C490.023 435.087 527.677 409.737 544.399 398.465C561.122 387.194 593.527 365.354 616.412 349.934C710.97 286.215 703.469 291.675 703.469 286.56C703.469 284.731 701.574 280.368 699.258 276.864C681.431 249.891 660.371 219.088 658.436 217.155C653.656 212.375 650.396 213.943 613.851 238.605ZM198.069 722.206C194.844 726.304 144 852.511 144 856.417C144 858.076 145.334 860.687 146.962 862.217L149.926 865H222.405H294.884L297.536 861.627C302.622 855.165 307.261 862.978 232.662 752.37C222.455 737.236 212.921 723.556 211.474 721.973C207.831 717.98 201.304 718.092 198.069 722.206Z" fill="#6b7fff"/>
</svg>
